<?xml version="1.0" encoding="UTF-8"?>
<svg width="107px" height="28px" viewBox="0 0 107 28" version="1.1" xmlns="http://www.w3.org/2000/svg" xmlns:xlink="http://www.w3.org/1999/xlink">
    <g id="Logo" stroke="none" stroke-width="1" fill="none" fill-rule="evenodd">
        <g>
            <path d="M33.4711744,9.79088883 C34.682225,9.79088883 35.6875147,10.2239732 36.4870433,11.0901418 C37.2983296,11.9446055 37.7039728,13.0214639 37.7039728,14.3207169 C37.7039728,15.6199699 37.3012691,16.705607 36.4958616,17.5776282 C35.6904541,18.4496494 34.682225,18.88566 33.4711744,18.88566 C32.4618147,18.88566 31.6428058,18.5864557 31.0141476,17.9880471 L30.8609487,17.8322116 L30.8609487,23.7523196 C30.8609487,23.8837697 30.7696104,23.9938866 30.6469381,24.0226659 L30.5832687,24.0299996 L28.7576795,24.0299996 C28.6262295,24.0299996 28.5161126,23.9386613 28.4873333,23.8159891 L28.4799995,23.7523196 L28.4799995,10.261701 C28.4799995,10.130251 28.5713378,10.0201341 28.6940101,9.99135476 L28.7576795,9.98402103 L30.3892654,9.98402103 C30.5207155,9.98402103 30.6308324,10.0753593 30.6596117,10.1980316 L30.6669454,10.261701 L30.6669454,11.0725844 C31.2665919,10.2181207 32.2013348,9.79088883 33.4711744,9.79088883 Z M42.878128,9.79088883 C44.0303898,9.79088883 44.9416172,10.1157021 45.6118103,10.7653286 C46.2341325,11.3685532 46.5675194,12.2013836 46.6119709,13.2638197 L46.6171,13.5130732 L46.6171,18.3972903 C46.6171,18.5287404 46.5257617,18.6388572 46.4030894,18.6676366 L46.33942,18.6749703 L44.7078341,18.6749703 C44.576384,18.6749703 44.4662671,18.583632 44.4374878,18.4609598 L44.4301541,18.3972903 L44.4301541,17.8322116 C43.7482032,18.5345105 42.8604913,18.88566 41.7670184,18.88566 C40.8499121,18.88566 40.1179907,18.6457078 39.5712542,18.1658036 C39.0245178,17.6858993 38.7511495,17.0596827 38.7511495,16.2871539 C38.7511495,15.5029201 39.0480333,14.8854823 39.6418009,14.4348405 C40.1815896,14.0251661 40.893858,13.8017074 41.7786061,13.7644642 L42.049205,13.7588778 L44.2361508,13.7588778 L44.2361508,13.3726134 C44.2361508,12.8810041 44.097997,12.5035184 43.8216893,12.2401563 C43.5453816,11.9767942 43.1426779,11.8451132 42.6135781,11.8451132 C42.1785405,11.8451132 41.7846551,11.9387531 41.4319219,12.1260328 C41.1295791,12.2865582 40.8099596,12.5330795 40.4730634,12.8655965 L40.3031756,13.0390214 L39.0686094,11.5817511 C40.0797779,10.3878429 41.3496175,9.79088883 42.878128,9.79088883 Z M78.8194369,9.79088883 C79.9716987,9.79088883 80.8829261,10.1157021 81.5531192,10.7653286 C82.1754414,11.3685532 82.5088282,12.2013836 82.5532798,13.2638197 L82.5584089,13.5130732 L82.5584089,18.3972903 C82.5584089,18.5287404 82.4670706,18.6388572 82.3443983,18.6676366 L82.2807288,18.6749703 L80.649143,18.6749703 C80.5176929,18.6749703 80.407576,18.583632 80.3787967,18.4609598 L80.371463,18.3972903 L80.371463,17.8322116 C79.6895121,18.5345105 78.8018002,18.88566 77.7083273,18.88566 C76.791221,18.88566 76.0592996,18.6457078 75.5125631,18.1658036 C74.9658266,17.6858993 74.6924584,17.0596827 74.6924584,16.2871539 C74.6924584,15.5029201 74.9893422,14.8854823 75.5831097,14.4348405 C76.1228984,14.0251661 76.8351669,13.8017074 77.719915,13.7644642 L77.9905139,13.7588778 L80.1774597,13.7588778 L80.1774597,13.3726134 C80.1774597,12.8810041 80.0393059,12.5035184 79.7629982,12.2401563 C79.4866905,11.9767942 79.0839868,11.8451132 78.554887,11.8451132 C78.1198494,11.8451132 77.725964,11.9387531 77.3732308,12.1260328 C77.070888,12.2865582 76.7512685,12.5330795 76.4143723,12.8655965 L76.2444845,13.0390214 L75.0099183,11.5817511 C76.0210868,10.3878429 77.2909263,9.79088883 78.8194369,9.79088883 Z M103.061026,9.79088883 C104.213288,9.79088883 105.124516,10.1157021 105.794709,10.7653286 C106.417031,11.3685532 106.750418,12.2013836 106.794869,13.2638197 L106.799998,13.5130732 L106.799998,18.3972903 C106.799998,18.5287404 106.70866,18.6388572 106.585988,18.6676366 L106.522318,18.6749703 L104.890732,18.6749703 C104.759282,18.6749703 104.649165,18.583632 104.620386,18.4609598 L104.613052,18.3972903 L104.613052,17.8322116 L104.452027,17.9880471 C103.793313,18.5864557 102.959276,18.88566 101.949917,18.88566 C101.03281,18.88566 100.300889,18.6457078 99.7541525,18.1658036 C99.2074161,17.6858993 98.9340478,17.0596827 98.9340478,16.2871539 C98.9340478,15.5029201 99.2309316,14.8854823 99.8246992,14.4348405 C100.364488,14.0251661 101.076756,13.8017074 101.961504,13.7644642 L102.232103,13.7588778 L104.419049,13.7588778 L104.419049,13.3726134 L104.412573,13.1936094 C104.382352,12.7884159 104.246357,12.4705982 104.004588,12.2401563 C103.72828,11.9767942 103.325576,11.8451132 102.796476,11.8451132 C102.361439,11.8451132 101.967553,11.9387531 101.61482,12.1260328 C101.312477,12.2865582 100.992858,12.5330795 100.655962,12.8655965 L100.486074,13.0390214 L99.2515077,11.5817511 L99.4326344,11.3772582 C100.412964,10.3196786 101.622428,9.79088883 103.061026,9.79088883 Z M62.580482,9.79088883 C63.8620793,9.76747886 64.9702495,10.2064157 65.9049925,11.1076993 C66.8397355,12.0089829 67.2953492,13.0799888 67.2718336,14.3207169 C67.2953492,15.561445 66.836796,16.6353771 65.8961741,17.5425133 C64.9555523,18.4496494 63.8444427,18.8915125 62.5628454,18.8681025 C61.2812481,18.8915125 60.1789568,18.4496494 59.2559716,17.5425133 C58.3329864,16.6353771 57.8832515,15.561445 57.9067671,14.3207169 C57.8832515,13.0799888 58.3359258,12.0089829 59.2647899,11.1076993 C60.193654,10.2064157 61.2988847,9.76747886 62.580482,9.79088883 Z M53.3785546,9.79088883 C54.3897231,9.79088883 55.1892517,10.1069233 55.7771404,10.7389924 C56.365029,11.3710614 56.6589734,12.2196726 56.6589734,13.284826 L56.6589734,13.284826 L56.6589734,18.3972903 C56.6589734,18.5506487 56.5346518,18.6749703 56.3812934,18.6749703 L56.3812934,18.6749703 L54.5733409,18.6749703 C54.4199825,18.6749703 54.2956609,18.5506487 54.2956609,18.3972903 L54.2956609,18.3972903 L54.2956609,13.6008605 L54.2886338,13.4166442 C54.2558406,12.9973681 54.1082714,12.6520254 53.8459261,12.3806161 C53.5461028,12.0704341 53.1551569,11.9153431 52.6730882,11.9153431 C52.1910194,11.9153431 51.7941946,12.0704341 51.4826136,12.3806161 C51.1710326,12.6907982 51.0152421,13.0975463 51.0152421,13.6008605 L51.0152421,13.6008605 L51.0152421,18.3972903 C51.0152421,18.5506487 50.8909205,18.6749703 50.7375621,18.6749703 L50.7375621,18.6749703 L48.911973,18.6749703 C48.7586145,18.6749703 48.634293,18.5506487 48.634293,18.3972903 L48.634293,18.3972903 L48.634293,10.261701 C48.634293,10.1083426 48.7586145,9.98402103 48.911973,9.98402103 L48.911973,9.98402103 L50.5435588,9.98402103 C50.6969173,9.98402103 50.8212388,10.1083426 50.8212388,10.261701 L50.8212388,10.261701 L50.8212388,10.7741073 L50.9766293,10.6286608 C51.6119665,10.0701462 52.4126083,9.79088883 53.3785546,9.79088883 Z M73.158069,9.87867619 C73.4520133,9.87867619 73.7106843,9.91379114 73.934082,9.98402103 L73.934082,9.98402103 L73.934082,12.0733603 L73.2991623,12.0733603 C72.5701803,12.0733603 71.9969888,12.2664926 71.5795879,12.652757 C71.1621869,13.0390214 70.9534864,13.6008605 70.9534864,14.3382744 L70.9534864,14.3382744 L70.9534864,18.3972903 C70.9534864,18.5506487 70.8291649,18.6749703 70.6758064,18.6749703 L70.6758064,18.6749703 L68.8502173,18.6749703 C68.6968589,18.6749703 68.5725373,18.5506487 68.5725373,18.3972903 L68.5725373,18.3972903 L68.5725373,10.261701 C68.5725373,10.1083426 68.6968589,9.98402103 68.8502173,9.98402103 L68.8502173,9.98402103 L70.4818032,9.98402103 C70.6351616,9.98402103 70.7594832,10.1083426 70.7594832,10.261701 L70.7594832,10.261701 L70.7594832,11.019912 C71.3708874,10.2590881 72.170416,9.87867619 73.158069,9.87867619 Z M94.4587453,9.79088883 C95.4699138,9.79088883 96.2723819,10.1069233 96.8661494,10.7389924 C97.459917,11.3710614 97.7568008,12.2196726 97.7568008,13.284826 L97.7568008,13.284826 L97.7568008,18.3972903 C97.7568008,18.5506487 97.6324792,18.6749703 97.4791208,18.6749703 L97.4791208,18.6749703 L95.6535317,18.6749703 C95.5001732,18.6749703 95.3758516,18.5506487 95.3758516,18.3972903 L95.3758516,18.3972903 L95.3758516,13.618418 L95.3692379,13.4302238 C95.3383737,13.0026262 95.199485,12.6556832 94.9525718,12.3893949 C94.6703852,12.0850653 94.2941365,11.9329006 93.8238255,11.9329006 C93.3535146,11.9329006 92.9684475,12.0850653 92.6686243,12.3893949 C92.3688011,12.6937244 92.2188895,13.0858413 92.2188895,13.5657456 L92.2188895,13.5657456 L92.2188895,18.3972903 C92.2188895,18.5506487 92.0945679,18.6749703 91.9412095,18.6749703 L91.9412095,18.6749703 L90.1156204,18.6749703 C89.9622619,18.6749703 89.8379403,18.5506487 89.8379403,18.3972903 L89.8379403,18.3972903 L89.8379403,13.618418 L89.8313266,13.4302238 C89.8004624,13.0026262 89.6615737,12.6556832 89.4146605,12.3893949 C89.1324739,12.0850653 88.7562252,11.9329006 88.2859142,11.9329006 C87.8038455,11.9329006 87.415839,12.0850653 87.1218947,12.3893949 C86.8279503,12.6937244 86.6809782,13.1033988 86.6809782,13.618418 L86.6809782,13.618418 L86.6809782,18.3972903 C86.6809782,18.5506487 86.5566566,18.6749703 86.4032982,18.6749703 L86.4032982,18.6749703 L84.5777091,18.6749703 C84.4243506,18.6749703 84.300029,18.5506487 84.300029,18.3972903 L84.300029,18.3972903 L84.300029,10.261701 C84.300029,10.1083426 84.4243506,9.98402103 84.5777091,9.98402103 L84.5777091,9.98402103 L86.2092949,9.98402103 C86.3626533,9.98402103 86.4869749,10.1083426 86.4869749,10.261701 L86.4869749,10.261701 L86.4869749,10.7565499 L86.6318251,10.6137006 C87.2262536,10.0651594 88.0010144,9.79088883 88.9561073,9.79088883 C90.0966114,9.79088883 90.9608077,10.2064157 91.5486964,11.0374694 C92.2894361,10.2064157 93.2594524,9.79088883 94.4587453,9.79088883 Z M44.2361508,15.3214929 L42.3666649,15.3214929 C41.5553785,15.3214929 41.1497353,15.6141174 41.1497353,16.1993666 C41.1497353,16.4919911 41.2643736,16.7231645 41.4936502,16.8928867 C41.7229268,17.062609 42.0256894,17.1474701 42.4019382,17.1474701 C42.931038,17.1474701 43.369015,16.9865266 43.7158694,16.6646396 C44.0193669,16.3829885 44.1900843,16.0318847 44.2280214,15.6113284 L44.2361508,15.4268377 L44.2361508,15.3214929 Z M80.1774597,15.3214929 L78.3079737,15.3214929 C77.4966874,15.3214929 77.0910442,15.6141174 77.0910442,16.1993666 C77.0910442,16.4919911 77.2056825,16.7231645 77.4349591,16.8928867 C77.6642356,17.062609 77.9669983,17.1474701 78.3432471,17.1474701 C78.8723469,17.1474701 79.3103239,16.9865266 79.6571783,16.6646396 C79.9606758,16.3829885 80.1313931,16.0318847 80.1693303,15.6113284 L80.1774597,15.4268377 L80.1774597,15.3214929 Z M104.419049,15.3214929 L102.549563,15.3214929 L102.392714,15.3253946 C101.685994,15.3618101 101.332634,15.6531341 101.332634,16.1993666 C101.332634,16.4919911 101.447272,16.7231645 101.676548,16.8928867 C101.905825,17.062609 102.208588,17.1474701 102.584836,17.1474701 C103.113936,17.1474701 103.551913,16.9865266 103.898768,16.6646396 C104.202265,16.3829885 104.372983,16.0318847 104.41092,15.6113284 L104.419049,15.4268377 L104.419049,15.3214929 Z M33.0302579,11.9329006 C32.3953381,11.9329006 31.8691777,12.1435902 31.4517768,12.5649696 C31.0343758,12.986349 30.8256753,13.5715981 30.8256753,14.3207169 C30.8256753,15.0698358 31.0343758,15.6580111 31.4517768,16.085243 C31.8691777,16.5124748 32.3953381,16.7260908 33.0302579,16.7260908 C33.6769354,16.7260908 34.2148535,16.5036961 34.6440123,16.0589068 C35.073171,15.6141174 35.2877504,15.0405733 35.2877504,14.3382744 C35.2877504,13.6242705 35.0761105,13.0448739 34.6528306,12.6000845 C34.2295508,12.1552952 33.6886932,11.9329006 33.0302579,11.9329006 Z M62.580482,11.950458 C61.9220467,11.950458 61.3811891,12.1757789 60.9579093,12.6264208 C60.5346294,13.0770626 60.3229895,13.6476804 60.3229895,14.3382744 C60.3229895,15.0171634 60.5346294,15.5790025 60.9579093,16.0237918 C61.3811891,16.4685811 61.9220467,16.6909758 62.580482,16.6909758 C63.2271596,16.6909758 63.7621383,16.4685811 64.1854181,16.0237918 C64.6204557,15.5790025 64.8379745,15.0171634 64.8379745,14.3382744 C64.8379745,13.6593854 64.6233952,13.0916938 64.1942364,12.6351995 C63.7650777,12.1787052 63.2271596,11.950458 62.580482,11.950458 Z" id="Combined-Shape" fill="#33374F" fill-rule="nonzero"></path>
            <g>
                <path d="M9.81673636,9.65874089 C12.5982342,11.1143403 16.0330801,10.0394873 17.4886795,7.25798949 C17.6850785,6.88269165 17.8381885,6.48802164 17.9461419,6.08157686 C17.976273,5.96813292 17.9943628,5.87184468 18.000411,5.79271214 C18.0907399,6.0954125 18.1366228,6.40962817 18.1366228,6.72551869 L18.1366228,13.8722771 L18.1358655,13.9642786 C18.1212311,14.8531089 17.8947123,15.7261068 17.4745687,16.5105091 C16.032084,19.2036084 12.6986314,20.2342246 9.99259996,18.8407883 L9.91079365,18.7978202 L2.57636403,15.0541136 L2.57636403,5.91835121 L9.81673636,9.65874089 Z" id="Path" fill="#0076FF" fill-rule="nonzero"></path>
                <path d="M10.3692727,0.630720344 L16.231178,3.64317768 L16.231178,3.64317768 C17.1051478,4.09231432 17.7366947,4.87835603 18.0002911,5.79566015 C17.9939251,5.87416736 17.97591,5.96949971 17.9461419,6.08157686 C17.8381885,6.48802164 17.6850785,6.88269165 17.4886795,7.25798949 C16.0476361,10.0116723 12.6667332,11.0926726 9.90037467,9.70165056 L9.81673636,9.65874089 L9.14196136,9.30562104 L9.14196136,1.37989174 C9.14196136,0.914697299 9.51907597,0.537582695 9.98427041,0.537582695 C10.1181836,0.537582695 10.2501669,0.569511373 10.3692727,0.630720344 Z" id="Path" fill="#FEAF17"></path>
                <path d="M9.14196136,16.9821679 L9.14196136,26.3558088 C9.14196136,26.8210032 8.76484676,27.1981178 8.29965232,27.1981178 C8.16698775,27.1981178 8.03619912,27.1667816 7.91793905,27.1066613 L0.921191498,23.5497027 C0.355997431,23.2623732 2.49229189e-13,22.6820344 2.49373587e-13,22.0479977 L2.49373587e-13,12.3346401 L2.49373587e-13,12.3346401 L9.14196136,16.9821679 Z" id="Path" fill="#0076FF" fill-rule="nonzero"></path>
                <path d="M5.22125947e-14,5.97092251 L5.22125947e-14,12.4467435 C5.22175255e-14,13.2392895 0.444996815,13.9647129 1.15148944,14.3238748 L9.14196136,18.3860163 L9.14196136,18.3860163 L9.14196136,9.30562104 L1.22854526,5.22238653 C0.81514026,5.00907416 0.307085442,5.17128128 0.0937730679,5.58468629 C0.0321527475,5.70410809 5.24181822e-14,5.8365401 5.22125947e-14,5.97092251 Z" id="Path-4" fill="#288CFF" fill-rule="nonzero"></path>
            </g>
        </g>
    </g>
</svg>